<svg xmlns="http://www.w3.org/2000/svg" viewBox="0 0 900 350"><defs><style>.a{fill:#a3a3a3;}.a,.aa,.ab,.ac,.ad,.ae,.af,.ag,.ah,.ak,.al,.am,.an,.ao,.ap,.aq,.ar,.as,.b,.c,.d,.g,.h,.i,.j,.k,.m,.n,.o,.p,.q,.r,.s,.t,.u,.v,.w,.x,.y,.z{fill-rule:evenodd;}.b{fill:#c4c4c4;}.c{fill:#afafaf;}.d{fill:#dddddc;}.e,.n{fill:#9da1a2;}.ao,.f,.i,.k{fill:#2b2b2b;}.f,.i{opacity:0.2;}.g{fill:#ececeb;}.h,.l{fill:#737373;}.j{fill:#858686;}.k,.m{opacity:0.1;}.o{fill:#5b5b5b;}.ai,.p{fill:#5a753d;}.q{fill:#738c57;}.r{fill:#9fce7e;}.s{fill:#446125;}.t{fill:#709c53;}.aj,.u{fill:#98c16d;}.v{fill:#c1907d;}.w{fill:#fce3d4;}.x{fill:#474747;}.y{fill:#f4c9b2;}.z{fill:#cfae95;}.aa{fill:#ffefe7;}.ab{fill:#b7c645;}.ac{fill:#e7ef78;}.ad{fill:#d8e254;}.ae{fill:#6f7173;}.af{fill:#beda8d;}.ag{fill:#4f5253;}.ah{fill:#cececd;}.ak{fill:#35785d;}.al{fill:#54af8a;}.am{fill:#3f8e6f;}.an{fill:#72c8a5;}.ap{fill:#8f8f8f;}.aq{fill:#1c7678;}.as{fill:#fff;}</style></defs><title>diplomats_Advocate_INFJ_introduction</title><polygon class="a" points="19.2 94.14 32.71 54.32 39.11 92.72 19.2 94.14"/><polygon class="a" points="213.32 79.2 226.13 43.65 228.26 78.49 213.32 79.2"/><polygon class="a" points="268.79 57.87 270.92 19.47 281.59 57.16 268.79 57.87"/><polygon class="a" points="366.21 37.96 374.74 6.67 379.72 37.25 366.21 37.96"/><polygon class="a" points="676.6 40.09 663.09 10.23 660.95 47.21 676.6 40.09"/><polygon class="a" points="743.08 63.2 733.84 33.34 728.86 66.05 743.08 63.2"/><polygon class="a" points="843.35 86.31 836.23 45.07 829.12 86.31 843.35 86.31"/><polygon class="b" points="297.91 104.92 420.1 109.56 575.77 96.95 727.08 107.72 822.01 104.92 813.92 204.66 762.99 201.87 686.82 209.05 658.98 211.32 571.34 209.72 401.5 185.46 334.56 206.49 308.54 203.05 297.91 104.92"/><polygon class="b" points="46.31 131.82 201.25 120.4 196.4 193.64 46.31 194.36 46.31 131.82"/><polygon class="c" points="37.69 79.2 54.93 87.92 49.87 194.49 26.31 203.64 29.16 139.27 37.69 79.2"/><polygon class="c" points="242.45 64.94 260.97 84.47 251.35 209.72 230.75 216.37 230.75 131.82 242.45 64.94"/><polygon class="c" points="287.28 46.96 304.51 67.83 308.54 203.05 293.67 210.04 287.28 139.27 287.28 46.96"/><polygon class="c" points="398.35 26.11 424.16 41.21 396.71 209.72 369.39 221.73 379.85 117.61 398.35 26.11"/><polygon class="c" points="543.36 59.12 514.78 68.98 518.59 214.19 532.16 219.43 544.42 128.5 543.36 59.12"/><polygon class="c" points="701.48 61.78 730.99 53.6 736.68 117.61 736.68 209.72 698.22 208.13 701.48 61.78"/><polygon class="c" points="681.04 216.18 658.98 211.32 647.02 53.52 672.66 31.49 679.75 131.82 681.04 216.18"/><polygon class="c" points="813.92 204.66 808.15 85.31 830.9 75.67 836.59 135.23 835.88 211.9 813.92 204.66"/><polygon class="d" points="0 201.37 2.85 85.98 37.69 79.2 26.31 203.64 0 201.37"/><polygon class="d" points="194.27 212.5 198.04 70.38 242.45 64.94 230.75 216.37 194.27 212.5"/><polygon class="d" points="251.35 209.72 254.57 49.69 287.28 46.96 293.67 210.04 251.35 209.72"/><polygon class="d" points="333.25 215.2 347.35 28.51 398.35 26.11 369.39 221.73 333.25 215.2"/><polygon class="d" points="532.16 219.43 543.36 59.12 585.11 64.94 570.84 217.29 532.16 219.43"/><polygon class="d" points="672.66 31.49 708.67 36.27 703.62 214.19 681.04 216.18 672.66 31.49"/><polyline class="d" points="730.99 53.6 762.99 61.25 762.99 208.35 736.68 209.72"/><polygon class="d" points="830.9 75.67 861.83 81.67 858.63 209.5 835.88 211.9 830.9 75.67"/><rect class="e" x="364.79" y="95.89" width="5.67" height="141.84"/><rect class="f" x="364.79" y="95.89" width="5.67" height="17.93"/><polygon class="b" points="389.5 71.53 367.45 55.32 345.41 71.53 350.13 79.49 352.16 85.04 347.19 87.89 353.23 97.13 358.92 93.09 359.28 101.75 367.45 101.75 375.63 101.75 376.12 93.09 381.68 97.13 387.72 87.89 382.74 85.04 384.64 80.02 389.5 71.53"/><polygon class="g" points="367.45 55.32 345.41 71.53 352.16 85.04 347.19 87.89 353.23 97.13 358.21 94.64 359.28 101.75 367.45 101.75 367.45 55.32"/><polygon class="h" points="355.32 76.95 365.05 76.95 365.05 86.26 361.32 81.61 355.32 76.95"/><polygon class="h" points="379.85 76.95 370.12 76.95 370.12 86.26 373.59 81.61 379.85 76.95"/><polyline class="h" points="366.92 91.22 364.79 91.22 366.92 86.42"/><polyline class="h" points="368.32 91.22 370.45 91.22 368.32 86.42"/><polygon class="i" points="375.63 101.75 376.7 94.64 381.68 97.13 374.39 90.15 375.63 101.75"/><polygon class="i" points="353.23 97.13 358.21 94.64 359.28 101.75 360.59 90.15 353.23 97.13"/><polygon class="i" points="354.85 83.42 345.41 71.53 352.16 85.04 354.85 83.42"/><polygon class="i" points="382.74 85.04 389.5 71.53 379.79 83.35 382.74 85.04"/><polygon class="j" points="379.85 76.95 372.92 79.75 370.12 86.26 379.85 76.95"/><polygon class="j" points="355.32 76.95 361.72 79.75 365.05 86.26 355.32 76.95"/><rect class="e" x="452.8" y="140.25" width="195.17" height="5.67" transform="translate(320 663.01) rotate(-80.67)"/><rect class="f" x="555.77" y="52.8" width="17.93" height="5.67" transform="translate(418.34 603.9) rotate(-80.68)"/><polygon class="b" points="591.72 26.3 572.6 6.73 548.22 19.16 551.59 27.77 552.7 33.58 547.33 35.58 551.79 45.69 558.06 42.62 557.01 51.23 565.08 52.55 573.15 53.87 575.03 45.4 579.86 50.29 587.32 42.15 582.87 38.54 585.56 33.89 591.72 26.3"/><polygon class="g" points="572.6 6.73 548.22 19.16 552.7 33.58 547.33 35.58 551.79 45.69 557.11 44.04 557.01 51.23 565.08 52.55 572.6 6.73"/><polygon class="h" points="557.12 26.11 566.73 27.69 565.22 36.88 562.29 31.68 557.12 26.11"/><polygon class="h" points="581.33 30.09 571.73 28.51 570.22 37.7 574.39 33.66 581.33 30.09"/><polyline class="h" points="566.26 42.07 564.15 41.72 567.04 37.33"/><polyline class="h" points="567.64 42.3 569.74 42.64 568.42 37.56"/><polygon class="i" points="573.15 53.87 575.35 47.03 579.86 50.29 573.8 42.23 573.15 53.87"/><polygon class="i" points="551.79 45.69 557.11 44.04 557.01 51.23 560.18 39.99 551.79 45.69"/><polygon class="i" points="555.61 32.42 548.22 19.16 552.7 33.58 555.61 32.42"/><polygon class="i" points="582.87 38.54 591.72 26.3 580.23 36.39 582.87 38.54"/><polygon class="j" points="581.33 30.09 574.03 31.73 570.22 37.7 581.33 30.09"/><polygon class="j" points="557.12 26.11 562.98 29.91 565.22 36.88 557.12 26.11"/><rect class="e" x="332.88" y="87.8" width="5.67" height="141.84" transform="translate(-26.16 75.38) rotate(-12.34)"/><rect class="f" x="319.65" y="89.23" width="5.67" height="17.93" transform="matrix(0.98, -0.21, 0.21, 0.98, -13.53, 71.19)"/><polygon class="b" points="336.74 60.97 311.74 49.84 293.67 70.38 299.98 77.15 303.15 82.14 298.89 85.98 306.77 93.72 311.47 88.56 313.67 96.95 321.65 95.2 329.64 93.45 328.27 84.88 334.56 87.65 338.49 77.33 333.02 75.61 333.81 70.3 336.74 60.97"/><polygon class="g" points="311.74 49.84 293.67 70.38 303.15 82.14 298.89 85.98 306.77 93.72 311.11 90.23 313.67 96.95 321.65 95.2 311.74 49.84"/><polygon class="h" points="304.51 73.56 314.01 71.49 316 80.58 311.36 76.83 304.51 73.56"/><polygon class="h" points="328.47 68.33 318.96 70.4 320.95 79.5 323.35 74.21 328.47 68.33"/><polyline class="h" points="318.88 85.02 316.8 85.48 317.86 80.33"/><polyline class="h" points="320.25 84.72 322.34 84.27 319.23 80.04"/><polygon class="i" points="329.64 93.45 329.17 86.28 334.56 87.65 325.95 82.39 329.64 93.45"/><polygon class="i" points="306.77 93.72 311.11 90.23 313.67 96.95 312.47 85.33 306.77 93.72"/><polygon class="i" points="305.43 79.98 293.67 70.38 303.15 82.14 305.43 79.98"/><polygon class="i" points="333.02 75.61 336.74 60.97 329.77 74.59 333.02 75.61"/><polygon class="j" points="328.47 68.33 322.3 72.54 320.95 79.5 328.47 68.33"/><polygon class="j" points="304.51 73.56 311.36 74.93 316 80.58 304.51 73.56"/><polygon class="k" points="340.43 238.67 478.03 213.6 582.02 247.2 454.03 262.13 340.43 238.67"/><polygon class="j" points="428.57 29.87 404.89 17.34 399.05 17.34 391.81 20.9 404.89 39.74 428.57 29.87"/><polygon class="h" points="404.89 17.34 404.89 -0.08 391.81 20.9 404.89 17.34"/><polygon class="h" points="412.6 184.8 399.05 184.8 399.05 67.83 412.6 67.83 414.71 115.51 412.6 184.8"/><polygon class="j" points="426.15 184.8 412.6 184.8 412.6 67.83 426.15 67.83 428.57 115.51 426.15 184.8"/><polygon class="h" points="439.71 184.8 426.15 184.8 426.15 67.83 439.71 67.83 442.29 118.36 439.71 184.8"/><polygon class="j" points="453.26 184.8 439.71 184.8 439.71 67.83 453.26 67.83 454.47 118.36 453.26 184.8"/><polygon class="h" points="466.82 184.8 453.26 184.8 453.26 67.83 466.82 67.83 468.95 122.77 466.82 184.8"/><polygon class="j" points="480.37 184.8 466.82 184.8 466.82 67.83 480.37 67.83 482.04 122.77 480.37 184.8"/><polygon class="h" points="493.93 184.8 480.37 184.8 480.37 67.83 493.93 67.83 495.41 126.06 493.93 184.8"/><polygon class="j" points="507.48 184.8 493.93 184.8 493.93 67.83 507.48 67.83 510.72 123.92 507.48 184.8"/><rect class="l" x="507.48" y="67.83" width="13.55" height="116.97"/><polygon class="m" points="521.03 85.6 399.05 73.87 399.05 67.83 521.03 67.83 521.03 85.6"/><polygon class="j" points="391.81 46.67 391.81 69.96 527.71 76.36 527.71 46.67 391.81 46.67"/><polygon class="h" points="459.76 44.54 391.81 46.67 391.81 54.85 461.89 61.25 527.71 53.78 527.71 46.67 459.76 44.54"/><polygon class="n" points="375.1 49.87 459.76 54.14 465.09 34.14 465.09 14.14 375.1 49.87"/><polygon class="h" points="490.95 29.87 514.62 17.34 520.47 17.34 527.71 20.9 514.62 39.74 490.95 29.87"/><polygon class="j" points="514.62 17.34 514.62 -0.08 527.71 20.9 514.62 17.34"/><polygon class="j" points="544.42 46.67 459.76 54.14 465.09 14.14 544.42 46.67"/><polygon class="h" points="499.63 184.8 420.49 184.8 418.58 235.25 502.09 239.7 499.63 184.8"/><polygon class="j" points="426.16 244.13 378.3 244.18 384.56 167 426.16 167 426.16 244.13"/><polygon class="h" points="410.96 226.33 399.76 226.33 396.71 181.23 410.96 184.8 410.96 226.33"/><polygon class="o" points="378.3 244.18 399.76 226.33 410.96 226.33 422.26 238.81 426.16 244.13 378.3 244.18"/><polygon class="n" points="410.96 184.8 426.16 167 384.56 167 396.71 181.23 410.96 184.8"/><polygon class="j" points="539.71 244.89 493.98 244.13 493.98 167 535.58 167 539.71 244.89"/><polygon class="h" points="520.38 226.33 505.4 230.75 509.18 184.8 521.88 183.04 520.38 226.33"/><polygon class="o" points="493.98 244.13 494.23 239.23 505.4 230.75 520.38 226.33 539.71 244.89 493.98 244.13"/><polygon class="n" points="521.88 183.04 535.58 167 493.98 167 509.18 184.8 521.88 183.04"/><polygon class="b" points="384.56 167 399.05 159.05 420.58 161.58 426.16 167 384.56 167"/><polygon class="b" points="535.58 167 521.03 159.05 502.09 161.58 493.98 167 535.58 167"/><polygon class="p" points="436.68 113.81 436.68 123.92 433.31 130.87 408.07 138 382.83 139.71 424.81 104.19 436.68 113.81"/><polygon class="q" points="433.31 130.87 433.31 139.71 429.33 151.01 409.76 139.71 384.56 167 382.83 139.71 433.31 130.87"/><polygon class="r" points="384.56 167 408.43 135.23 429.33 151.01 429.33 159.05 426.16 167 412.84 160.27 384.56 167"/><polygon class="s" points="436.96 112.41 449.14 118.36 446.56 142.18 439.71 163.64 433.31 167 426.16 167 436.96 112.41"/><polygon class="t" points="449.14 118.36 461.11 126.31 460.04 143.78 457.23 159.05 448.43 163.02 439.71 163.64 449.14 118.36"/><polygon class="s" points="461.11 126.31 477.96 141 479.62 152.65 477.02 163.64 457.23 159.05 461.11 126.31"/><polygon class="t" points="477.96 141 490.95 151.11 493.98 167 484.16 167 477.02 163.64 477.96 141"/><polygon class="q" points="493.98 167 489.24 152.65 496.83 155.11 502.09 161.58 493.98 167"/><polygon class="u" points="424.16 104.67 502.09 161.58 521.03 159.05 525.49 159.82 524.07 123.92 504.69 103.26 443.69 90.32 424.16 104.67"/><polygon class="v" points="460.34 114.74 473.4 126.06 485.46 118.36 473.4 115.73 460.34 114.74"/><polygon class="w" points="452.69 72.05 446.03 68.72 442.29 80.24 447.49 82.61 451.27 78.58 452.69 72.05"/><polygon class="w" points="502.32 85.6 508.44 84.47 509.33 95.37 503.73 96.43 501.94 91.47 502.32 85.6"/><polygon class="v" points="446.74 79.83 449.14 74.23 446.56 73.16 446.74 79.83"/><polygon class="v" points="504.78 93.87 504.51 88.54 507.27 87.92 504.78 93.87"/><polygon class="x" points="457.4 62.49 443.69 90.32 450.55 95.37 455.63 78.23 457.4 62.49"/><polygon class="x" points="500.96 76.72 504.69 103.26 497.25 104.67 498.47 90.23 500.96 76.72"/><polygon class="w" points="457.4 62.49 452.35 86.74 449.05 111.29 493.23 117.78 498.31 96.65 500.96 76.72 482.04 67.83 457.4 62.49"/><polygon class="y" points="458.56 76.72 476.03 81.87 496.29 85.6 477.81 92.23 468.95 90.32 458.56 76.72"/><polygon class="z" points="452.35 86.74 446.92 112.8 495.25 119.78 497.25 107.83 498.31 96.65 452.35 86.74"/><polygon class="aa" points="479.62 82.53 477.86 92.24 468.95 90.32 470.5 80.24 479.62 82.53"/><polygon class="v" points="459.89 95.47 472.83 95.74 482.96 101.47 481.23 104.67 471.76 98 460.03 98.94 459.89 95.47"/><polygon class="v" points="468.95 90.32 472.62 94.54 477.86 92.24 468.95 90.32"/><polygon class="x" points="459.63 70 457.23 76.54 476.03 85.74 496.83 86 496.29 77.07 476.43 80.24 459.63 70"/><polygon class="ab" points="497.25 53.52 481.4 64.78 478.47 45.87 466.06 58.81 498.77 71.55 497.25 53.52"/><polygon class="ac" points="459.76 56.36 468.07 37.52 473.4 61.52 489.67 46.05 490.38 68.28 511.45 55.63 502.91 73.16 496.29 71.55 482.42 66.54 467.18 60.45 459.76 56.36"/><polygon class="ad" points="457.4 62.49 459.76 56.36 502.91 73.16 500.96 76.72 457.4 62.49"/><polygon class="ab" points="468.07 37.52 465.09 29.61 471.43 31.01 476.43 35.07 468.07 37.52"/><polygon class="ab" points="474.28 39.74 478.47 45.87 484.29 42.01 479.62 39.74 474.28 39.74"/><polygon class="ab" points="489.67 46.05 486.93 38.85 491.88 39.74 496.83 42.81 489.67 46.05"/><polygon class="ab" points="493.93 47.87 497.25 53.52 503.9 50.25 498.91 47.87 493.93 47.87"/><polygon class="ab" points="511.45 55.63 510.21 49.69 514.62 51.47 518.59 54.82 511.45 55.63"/><polygon class="ac" points="465.09 29.61 473.4 26.94 476.43 35.07 465.09 29.61"/><polygon class="ac" points="474.28 39.74 480.37 35.07 484.29 42.01 474.28 39.74"/><polygon class="ac" points="486.93 38.85 494.69 35.07 496.83 42.81 486.93 38.85"/><polygon class="ac" points="493.93 47.87 500.97 42.81 503.9 50.25 493.93 47.87"/><polygon class="ac" points="510.21 49.69 518.59 46.05 518.59 54.82 510.21 49.69"/><polygon class="ae" points="459.63 70 476.03 85.74 496.29 77.07 475.23 78 459.63 70"/><polygon class="p" points="524.07 123.92 511.76 132.03 502.09 161.58 521.03 159.05 529.43 163.64 524.07 123.92"/><polygon class="q" points="511.76 132.03 529.43 163.64 502.09 161.58 503.9 146.63 511.76 132.03"/><polygon class="af" points="511.76 132.03 496.83 122.77 477.96 143.78 502.09 161.58 511.76 132.03"/><polygon class="v" points="496.83 122.77 505.4 119.78 505.4 108.68 499.8 115.73 496.83 122.77"/><polygon class="v" points="489.24 135.23 491.88 147.49 502.32 132.09 496.83 122.77 492.43 128 489.24 135.23"/><polygon class="y" points="505.4 108.68 498.31 96.65 497.31 104.19 496.12 113.19 500.76 112.41 505.4 108.68"/><polygon class="w" points="485.46 118.36 496.12 113.19 505.4 108.68 489.24 135.23 485.46 118.36"/><polygon class="t" points="456.29 208.13 426.16 208.13 414.71 195.87 426.15 181.23 438.43 176.27 456.29 208.13"/><polygon class="t" points="476.03 176.27 493.93 181.23 493.93 208.13 456.29 208.13 476.03 176.27"/><polygon class="s" points="437.65 178.74 456.29 208.13 476.57 178.34 454.47 173.47 437.65 178.74"/><polygon class="p" points="426.16 167 457.23 159.05 493.98 167 493.93 181.23 455.63 174.84 426.15 181.23 426.16 167"/><polygon class="u" points="457.23 159.05 455.63 174.84 476.57 178.34 477.04 163.33 457.23 159.05"/><polygon class="p" points="460.07 165.07 472.89 165.07 473.63 174 460.07 173.07 460.07 165.07"/><polygon class="p" points="444.09 188.89 441.22 217.2 421.23 216.53 414.71 195.87 428.03 194.4 444.09 188.89"/><polygon class="p" points="467.59 191.53 480.76 196.63 493.93 198.93 493.93 214.67 470.48 217.2 467.59 191.53"/><polygon class="r" points="414.71 195.87 430.56 204.37 444.09 188.89 414.71 195.87"/><polygon class="r" points="467.59 191.53 479.62 205.59 493.93 198.93 467.59 191.53"/><polygon class="s" points="416.3 217.2 445.63 218.13 444.39 223.65 427.89 254 415.79 221.38 416.3 217.2"/><polygon class="s" points="468.42 218.67 495.43 214 495.51 219.34 493.91 244.18 487.49 255.75 467.98 224.01 468.42 218.67"/><polygon class="p" points="429.33 233.33 415.36 244.18 415.79 248.13 429.33 256 444.09 247.73 443.32 244.99 429.33 233.33"/><polygon class="p" points="487.01 233.71 474.43 243.82 471.21 247.49 487.49 255.75 502.14 247.89 500.07 244.23 487.01 233.71"/><polygon class="t" points="447.89 217.2 413.49 215.2 415.79 221.38 444.39 223.65 447.89 217.2"/><polygon class="t" points="467.98 224.01 495.51 219.34 497.76 212.25 464.43 217.2 467.98 224.01"/><polygon class="t" points="410.03 247.73 429.33 256 447.09 248.13 443.32 244.99 429.4 251.23 415.36 244.18 410.03 247.73"/><polygon class="t" points="500.07 244.23 487.49 250.72 474.43 243.82 468.54 248.55 487.49 255.75 504.5 248.19 500.07 244.23"/><polygon class="w" points="388.64 161.58 414.71 155.11 420.1 167 388.64 161.58"/><polygon class="y" points="388.64 161.58 396.71 176.27 413.49 176.27 420.1 167 388.64 161.58"/><polygon class="k" points="687.7 260.4 861.83 281.66 899.17 250.71 787.24 232.26 687.7 260.4"/><polygon class="ae" points="825.21 263.82 835.17 231.63 835.17 190.91 758.37 184.18 677.13 187.56 692.06 257.68 825.21 263.82"/><polygon class="ag" points="825.21 267.94 872.85 254.46 876.05 184.18 855.52 184.18 835.17 190.91 825.21 267.94"/><polygon class="n" points="835.17 190.91 839.79 172.77 763.35 146.89 677.13 174.07 677.13 187.56 758.46 187.07 835.17 190.91"/><polygon class="ae" points="763.35 146.89 876.05 172.77 859.7 185.71 835.17 190.91 834.99 176.15 763.35 146.89"/><polygon class="ah" points="834.99 176.15 677.13 174.07 677.13 187.56 835.17 190.91 839.79 183.02 834.99 176.15"/><polygon class="n" points="835.17 190.91 834.99 176.15 876.05 172.77 876.05 184.18 835.17 190.91"/><path class="ah" d="M677.14,187.56,687.7,260.4l137.51,7.54,8.37-30.51,1.59-46.51Zm125,68.5-94.93-11-13.51-48.35,123,9.86Z"/><path class="j" d="M835.17,190.92l-10,77,50.84-11.33V184.18Zm30,56.45-25.42,6.41,3-52.62,25.6-2.14Z"/><polygon class="i" points="735.79 222.3 743.79 230.32 778.46 222.3 772.55 189.68 751.79 197.31 735.79 222.3"/><polygon class="a" points="764 183.24 760.15 214.84 730.99 214.7 737.93 220.89 768.9 219.2 772.55 189.68 764 183.24"/><polygon class="h" points="761.21 216.97 767.79 220.44 735.79 222.3 730.99 214.7 747.49 213.6 761.21 216.97"/><polygon class="g" points="730.99 214.7 736.33 177.41 764 183.24 761.21 216.97 730.99 214.7"/><polygon class="ae" points="740.6 193.33 750.37 186.58 756.77 195.29 748.59 200.62 750.2 208.62 742.37 207.73 745.39 200.09 740.6 193.33"/><polygon class="k" points="552.69 292.68 637.07 278.91 720.87 303.59 626.74 323.11 552.69 292.68"/><rect class="ai" x="621" y="159.37" width="77.83" height="23.92" transform="translate(170.03 645.52) rotate(-58.62)"/><polygon class="q" points="690.2 136.55 683.58 132.51 680.43 126.47 711.83 73.87 718.54 75.17 725.16 79.21 690.2 136.55"/><rect class="aj" x="664.17" y="97.95" width="67.16" height="7.75" transform="translate(247.55 644.54) rotate(-58.63)"/><polygon class="p" points="723.92 81.25 710.68 73.18 709.59 63.21 722.33 68.97 733.28 77.66 723.92 81.25"/><polygon class="r" points="709.59 63.21 726.32 62.43 733.28 77.66 709.59 63.21"/><polygon class="t" points="648.07 120.37 710.63 158.53 716.26 149.3 695.19 136.45 683.58 132.51 674.76 124 653.69 111.15 648.07 120.37"/><polygon class="r" points="674.76 124 695.19 136.45 673.72 148.68 674.76 124"/><polygon class="ak" points="617.98 265.9 619.27 290 581.67 286.75 590.96 259.97 617.98 265.9"/><polygon class="ak" points="645.49 272.4 644.53 294.41 682.22 292.88 672.85 268.77 645.49 272.4"/><polygon class="al" points="589.81 211.52 578.52 254.42 597.32 274.99 605.69 249.94 610.18 230.11 602.34 219.21 589.81 211.52"/><polygon class="al" points="628.6 246.91 634.58 273.55 665.19 282.21 659.96 254.23 651.07 232.84 638.74 237.28 628.6 246.91"/><polygon class="am" points="610.18 230.11 620.23 237.28 628.6 246.91 623.86 268 597.32 274.99 610.18 230.11"/><polygon class="am" points="672.85 219.21 685 263.98 665.19 282.21 651.07 232.84 659.96 225.72 672.85 219.21"/><polygon class="t" points="589.81 211.52 610.18 230.11 628.6 245 651.07 232.84 672.85 219.21 630.32 213.73 589.81 211.52"/><polygon class="p" points="617.98 214.19 610.18 230.11 628.6 246.91 651.07 232.84 641.08 216.27 630.32 213.73 617.98 214.19"/><polygon class="t" points="611.82 145.54 592.49 191.95 630.32 198.27 672.46 201.93 685 152.34 611.82 145.54"/><polygon class="ad" points="629.44 92.64 617.74 87.57 613.92 82.5 612 77.43 612 62.31 600.71 80.44 606.84 102.19 611.09 115.02 629.44 92.64"/><polygon class="ab" points="620.31 103.78 600.71 80.44 604.62 102.8 611.09 115.02 620.31 103.78"/><polygon class="ac" points="617.74 87.57 600.71 80.44 612 77.43 617.74 87.57"/><polygon class="am" points="685 152.34 677.01 116.53 672.08 104.79 665.75 95.19 657.54 89.49 650.84 80.44 629.44 92.64 618.32 102.19 611.09 115.02 602.34 137.75 619.85 149.69 639.08 167.94 664.43 157.03 685 152.34"/><polygon class="ak" points="685 152.34 666.91 144.78 639.95 163.58 613.46 132.32 602.34 137.75 639.08 167.94 685 152.34"/><polygon class="ak" points="650.84 80.44 642.81 100.97 654.28 99.75 665.75 95.19 650.84 80.44"/><polygon class="y" points="659.96 123.76 663.66 123.35 665.42 126.96 667.51 145.03 654.28 155.3 654.28 139.65 659.96 123.76"/><polygon class="v" points="625.17 148.61 642.81 150.93 654.28 155.3 639.08 167.94 625.17 148.61"/><polygon class="w" points="659.96 123.76 654.28 155.3 611.82 145.54 614.48 124.19 616.84 119.97 659.96 123.76"/><polygon class="v" points="618.89 136.61 648.55 139.71 646.83 142.69 618.89 139.65 618.89 136.61"/><polygon class="v" points="665.42 126.96 630.56 136.23 614.48 124.19 615.08 118.95 632.67 129.09 664.7 121.75 665.42 126.96"/><polygon class="al" points="677.01 116.54 630.56 136.23 613.92 114.43 616.98 99.75 629.8 95.19 642.81 100.97 665.75 95.19 674.09 103.45 677.01 116.54"/><polygon class="an" points="642.81 100.97 630.56 136.23 611.09 115.02 616.98 99.75 629.44 92.64 642.81 100.97"/><polygon class="ao" points="624.15 108.09 637.69 115.71 657.44 109.86 659.17 116.54 634.74 124.19 622 113.74 624.15 108.09"/><polygon class="ad" points="665.75 95.19 675.72 93.79 681.84 89.81 685 85.84 689.11 70.93 692.75 91.02 682.22 109.86 677.01 116.54 664.81 108.09 665.75 95.19"/><polygon class="ab" points="664.81 108.09 692.75 91.02 682.99 111.58 677.01 116.54 664.81 108.09"/><polygon class="ac" points="685 85.84 692.75 91.02 675.72 93.79 685 85.84"/><polygon class="p" points="592.49 191.95 589.81 211.52 617.99 214.13 631.33 214.19 641.08 216.26 672.85 219.21 672.46 201.93 642.2 198.15 631.33 198.55 619.87 195.37 592.49 191.95"/><polygon class="u" points="619.85 195.53 617.98 214.19 641.08 216.27 642.2 198.15 619.85 195.53"/><polygon class="p" points="625.17 200.13 636.78 200.77 634.77 211.18 623.86 209.02 625.17 200.13"/><polygon class="am" points="573.92 288.86 597.32 274.99 623.86 292.88 617.36 299.38 575.03 297.85 573.92 288.86"/><polygon class="am" points="638.74 295.94 665.19 282.21 682.22 292.88 687.96 295.94 686.81 303.59 646.9 304.93 638.74 295.94"/><polygon class="al" points="668.03 294.41 686.81 303.59 669.78 312.2 668.03 303.3 668.03 294.41"/><polygon class="al" points="617.36 299.38 595.55 287.14 591.86 296.99 589.81 306.84 617.36 299.38"/><polygon class="an" points="595.55 287.14 575.03 297.85 589.81 306.84 595.55 287.14"/><polygon class="an" points="668.03 294.41 646.9 304.93 669.78 312.2 668.03 294.41"/><polygon class="ak" points="607.75 155.3 591.39 154.37 578.52 158.28 575.03 188.58 585.29 193.96 591.12 201.93 607.75 155.3"/><polygon class="ak" points="668.03 164.87 686.81 167.57 703.08 173.12 692.75 212.14 682.22 212.14 672.85 219.21 665.19 186.49 668.03 164.87"/><polygon class="y" points="620.31 172.16 607.75 155.3 602.53 163.58 602.34 171.47 610.51 173.12 620.31 172.16"/><polygon class="w" points="607.75 155.3 602.34 154.27 597.32 156.36 602.34 171.47 607.75 155.3"/><polygon class="an" points="611.82 145.54 602.34 137.75 579.48 142.69 578.52 158.28 597.32 156.36 607.75 155.3 611.82 145.54"/><polygon class="an" points="685 152.34 706.23 158.28 703.08 173.12 668.03 164.87 669.78 157.51 685 152.34"/><polygon class="am" points="678.78 205.9 665.19 186.49 648.55 186.7 631.33 190.39 620.31 194.53 672.85 219.21 678.78 205.9"/><polygon class="al" points="585.29 189.77 602.34 171.47 645.46 173.12 648.55 182.74 646.9 189.77 591.12 201.93 585.29 189.77"/><polygon class="y" points="645.46 173.12 665.19 186.49 646.9 189.77 645.46 173.12"/><polygon class="an" points="665.19 186.49 672.85 219.21 692.75 212.14 665.19 186.49"/><polygon class="an" points="575.03 188.58 602.34 171.47 591.12 201.93 575.03 188.58"/><polygon class="ab" points="692.75 212.14 687.96 228.16 672.85 219.21 692.75 212.14"/><polygon class="ab" points="591.12 201.93 575.93 205.58 575.03 188.58 591.12 201.93"/><polygon class="k" points="27.47 275.95 116.88 258.74 205.19 276.51 113.55 299.28 27.47 275.95"/><polygon class="p" points="146.13 54.21 135.77 41.31 135.77 57.59 146.13 54.21"/><polygon class="p" points="79.67 59.78 76.16 49.5 70.6 50.34 66.72 58.08 79.67 59.78"/><polygon class="t" points="127.81 56.4 146.13 54.21 136.97 69.54 130.95 64.36 127.81 56.4"/><polygon class="t" points="85.6 58.99 66.72 58.08 79.17 73.46 84.12 66.95 85.6 58.99"/><polygon class="am" points="161.5 115.28 174.22 100.6 174.09 113.72 161.5 115.28"/><polygon class="am" points="64.54 122.68 51.53 109.97 52.46 122.82 64.54 122.68"/><polygon class="am" points="88.26 61.86 75.97 80.65 75.97 116.75 89.9 126.05 114.85 134.81 138.54 124.23 146.13 111.75 140.76 75.09 125.84 59.78 88.26 61.86"/><polygon class="w" points="131.66 79.45 135.22 121.14 89.9 124.23 88.26 83.69 131.66 79.45"/><polygon class="y" points="95.59 90.65 107.02 106.98 116.46 106.43 124.57 88.42 95.59 90.65"/><polygon class="aa" points="106.13 89.84 107.02 106.98 116.46 106.43 114.85 89.32 106.13 89.84"/><polygon class="v" points="88.26 83.69 111.23 93.98 131.66 79.45 88.26 83.69"/><polygon class="an" points="108.37 57.59 111.3 73.46 111.05 89.32 75.97 80.65 85.6 58.99 108.37 57.59"/><polygon class="al" points="108.37 57.59 127.81 56.4 140.76 75.09 111.05 89.32 108.37 57.59"/><polygon class="ag" points="95.59 90.65 106.13 89.84 106.49 96.09 95.59 90.65"/><polygon class="ag" points="114.85 89.32 124.57 88.42 115.52 95.18 114.85 89.32"/><polygon class="ag" points="107.02 106.98 98.14 115.38 125.84 113.72 116.46 106.43 107.02 106.98"/><path class="ao" d="M122.16,96.85a2.22,2.22,0,1,1-2.22-2.22A2.23,2.23,0,0,1,122.16,96.85Z"/><path class="ao" d="M104.39,98.37a2.22,2.22,0,1,1-2.22-2.22A2.23,2.23,0,0,1,104.39,98.37Z"/><polygon class="ao" points="107.02 106.98 111.99 110.91 116.46 106.43 107.02 106.98"/><polygon class="v" points="125.84 113.72 111.99 116.84 98.14 115.38 125.84 113.72"/><polygon class="ak" points="89.9 124.23 115.59 140.55 135.22 121.14 89.9 124.23"/><polygon class="am" points="78.93 122.82 77.45 140.2 76 174.02 77.45 193.39 116.46 190.43 118.55 164.72 115.59 138.04 78.93 122.82"/><polygon class="ak" points="146.13 118.54 115.59 138.04 116.46 190.43 154.93 187.84 154.56 169.86 151.69 136.35 146.13 118.54"/><polygon class="an" points="75.97 116.75 115.59 138.04 76 174.02 72.31 138.2 75.97 116.75"/><polygon class="al" points="115.59 138.04 154.56 169.86 155.94 133.04 146.13 111.75 115.59 138.04"/><polygon class="am" points="77.45 193.39 53.85 269.29 95.59 270.7 116.46 215.77 116.46 190.43 77.45 193.39"/><polygon class="am" points="116.46 215.77 140.76 270.26 180.15 265.38 154.93 187.84 116.46 190.43 116.46 215.77"/><polygon class="al" points="64.54 234.92 88.38 225.97 104.96 246.06 78.01 254.92 64.54 234.92"/><polygon class="al" points="129.57 245.16 147.8 227.08 170.24 234.92 155.94 252.75 129.57 245.16"/><polygon class="ak" points="72.31 237.36 87.17 233.84 93.7 244.04 81.48 250.13 72.31 237.36"/><polygon class="ak" points="140.21 241.24 148.4 231.52 162.84 239.67 152.15 247.25 140.21 241.24"/><polygon class="an" points="53.85 269.29 78.01 254.92 95.59 270.7 73.38 278.85 53.85 269.29"/><polygon class="an" points="140.76 270.26 155.94 252.75 180.15 265.38 163.72 278.85 140.76 270.26"/><polygon class="ak" points="70.6 279.7 73.38 285.39 95.59 278.73 95.59 270.7 73.38 276.63 70.6 279.7"/><polygon class="ak" points="161.5 279.7 164.09 285.39 180.15 274.5 180.15 265.38 163.72 276.63 161.5 279.7"/><polygon class="am" points="73.38 276.63 73.38 285.39 53.85 277.44 53.85 269.29 73.38 276.63"/><polygon class="am" points="140.76 270.26 163.72 276.63 164.09 285.39 140.76 278.73 140.76 270.26"/><polygon class="ag" points="111.79 223.04 83.75 236.18 53.76 202.09 82.64 168.05 111.79 179.57 111.79 223.04"/><polygon class="j" points="112.07 216.01 85.6 224.73 72.64 202.1 84.75 179.5 112.07 187.15 112.07 216.01"/><polygon class="ag" points="121.51 223.04 149.56 236.18 179.55 202.09 150.67 168.05 121.51 179.57 121.51 223.04"/><polygon class="j" points="121.23 216.01 147.7 224.73 160.67 202.1 148.55 179.5 121.23 187.15 121.23 216.01"/><polygon class="ap" points="121.51 290.95 116.65 290.95 112.77 288.73 112.88 181.65 116.65 179.57 121.51 179.57 121.51 290.95"/><rect class="e" x="111.79" y="179.58" width="4.86" height="111.37"/><polygon class="i" points="116.65 201.87 62.5 212.03 53.78 202.11 60.21 194.49 108.37 175.53 164.09 181.67 171.49 192.59 179.53 202.11 169.58 213.42 116.65 201.87"/><polygon class="t" points="73.38 139.09 62.09 139.09 48.2 142.04 41.72 170.18 62.18 171.38 82.64 168.05 73.38 139.09"/><polygon class="t" points="153.82 133.61 167.94 130.96 180.94 132.85 190.75 164.72 170.24 167.29 150.53 166.57 153.82 133.61"/><polygon class="p" points="190.75 164.72 157.7 196.37 151.52 180.55 150.53 166.57 190.75 164.72"/><polygon class="p" points="41.72 170.18 75.71 196.37 80.6 182.21 82.64 168.05 41.72 170.18"/><polygon class="t" points="150.53 166.57 134.1 171.38 131.66 183.28 134.1 194.49 157.7 196.37 150.53 166.57"/><polygon class="t" points="82.64 168.05 93.63 165.39 99.94 176.91 101.04 186.57 75.71 196.37 82.64 168.05"/><polygon class="u" points="134.1 171.38 121.51 173.03 115.94 184.7 116.46 191.47 134.1 194.49 134.1 171.38"/><polygon class="q" points="116.46 191.47 100.64 196.37 101.04 186.57 121.51 173.03 116.46 191.47"/><polygon class="af" points="101.04 186.57 111.79 179.57 114.85 170.18 115.94 159.33 93.63 165.39 101.04 186.57"/><polygon class="t" points="115.94 159.33 134.1 171.38 111.79 179.57 115.94 159.33"/><polygon class="r" points="73.38 139.09 48.2 142.04 52.46 122.82 75.97 116.75 73.38 139.09"/><polygon class="r" points="146.13 111.75 174.09 113.72 180.94 132.85 153.82 133.61 146.13 111.75"/><polygon class="s" points="190.75 164.72 185.19 189.32 157.7 196.37 190.75 164.72"/><polygon class="s" points="41.72 170.18 49.87 194.49 75.71 196.37 41.72 170.18"/><polygon class="k" points="211.22 320.16 277.3 309.66 333.9 322.21 274.99 338.6 211.22 320.16"/><polygon class="k" points="288.31 338.6 349.78 327.58 406.38 339.37 347.22 349.36 288.31 338.6"/><polygon class="y" points="339.54 339.64 346.67 341.08 353 338.44 351.42 337.19 343.65 331.02 341.14 334.48 339.54 339.64"/><polygon class="v" points="346.67 341.08 353.8 339.08 353.8 335.24 346.67 341.08"/><polygon class="w" points="335.04 332.03 330.01 337.08 327.28 340.48 336.34 341.08 339.54 339.64 337.32 334.66 335.04 332.03"/><polygon class="v" points="336.34 341.08 330.01 337.08 326.03 341.08 336.34 341.08"/><polygon class="v" points="347.76 322.4 339.54 339.64 338.32 321.15 347.76 322.4"/><polygon class="p" points="339.54 322.4 353.8 322.4 351.59 312.26 339.54 313.86 338.32 319.2 339.54 322.4"/><polygon class="y" points="329.34 322.4 339.54 339.64 339.54 322.4 335.45 321.15 329.34 322.4"/><polygon class="y" points="308.54 290.42 317.81 302.3 320.17 290.42 308.54 290.42"/><polygon class="y" points="360.56 281.42 357.83 292.71 352.7 284.35 360.56 281.42"/><polygon class="am" points="314.83 270.13 304.7 289.57 318.9 292.71 321.23 282.04 321.23 271.4 314.83 270.13"/><polygon class="am" points="350.7 267.6 364.25 278.31 355.77 285.45 352.7 278.31 350.7 267.6"/><polygon class="t" points="339.54 313.86 339.54 322.4 324.43 322.4 326.92 313.86 339.54 313.86"/><polygon class="w" points="321.23 265.15 314.83 270.13 321.23 272.17 340.5 280.62 350.7 267.6 321.23 265.15"/><polygon class="ac" points="322.56 233.47 316.3 231.9 308.54 224.62 337.36 212.53 352.7 224.62 340.5 229.6 322.56 233.47"/><polygon class="ad" points="322.56 233.47 308.54 224.62 305.1 233.47 309.77 246.7 321.23 265.15 322.63 247.47 322.56 233.47"/><polygon class="ab" points="305.1 233.47 304.7 255.73 321.23 265.15 305.1 233.47"/><polygon class="ab" points="352.7 224.62 360.96 230.75 357.88 243.3 354.03 233.47 352.7 224.62"/><polygon class="t" points="292.56 319.32 280.37 316.16 290.54 312.91 292.83 316.07 292.56 319.32"/><polygon class="y" points="301.39 308.96 306.15 313.3 299.87 317.62 290.54 312.91 294.17 310.2 301.39 308.96"/><polygon class="u" points="306.15 313.3 313.66 318.4 292.56 319.32 290.54 312.91 306.15 313.3"/><polygon class="q" points="268.55 195.46 278.3 209.73 282.97 221.2 285.69 248.09 263.1 244.93 242.81 239.7 235.21 203.62 235.21 193.87 268.55 195.46"/><polygon class="v" points="287.54 169.19 283.87 189.96 275.65 181.46 273.21 173.63 280.43 168.8 287.54 169.19"/><polygon class="w" points="303.78 117.67 312.95 161.32 273.21 173.63 258.76 149.19 264.89 123.92 282.69 119.67 303.78 117.67"/><polygon class="w" points="273.74 112.41 275.99 107.97 283.12 104.19 289.67 105.09 294.69 109.75 284.04 112.37 273.74 112.41"/><polygon class="y" points="284.12 126.06 286.6 128.88 289.67 146.63 280.71 133.27 274.2 132.81 284.12 126.06"/><polygon class="y" points="291.55 128.04 299.58 122.77 293.79 138 291.55 128.04"/><polygon class="y" points="264.89 123.92 273.21 173.63 262.85 160.75 258.76 149.19 259.88 135.47 264.89 123.92"/><polygon class="u" points="226.86 118.36 252.07 113.48 273.28 112.47 284.08 111.1 294.47 109.78 298.12 108.68 301.9 108.84 303.78 117.67 264.89 123.92 255.43 127.56 244.65 127.18 236.02 130.87 225.99 130.18 226.86 118.36"/><polygon class="p" points="282.62 116.14 286.45 110.8 291.86 114.72 287.89 120.22 282.62 116.14"/><polygon class="al" points="226.86 118.36 229.37 94.1 279.36 94.39 283.5 99.19 283.12 104.19 273.74 112.41 226.86 118.36"/><polygon class="am" points="279.36 94.39 298.26 94.66 301.9 108.84 294.69 109.75 283.12 104.19 279.36 94.39"/><polygon class="aq" points="274.2 132.81 277.7 127.62 284.12 126.06 274.2 132.81"/><polygon class="aq" points="291.55 128.04 294.48 123.8 299.58 122.77 291.55 128.04"/><polygon class="aa" points="291.55 128.04 286.6 128.88 289.67 146.63 295.44 145.33 291.55 128.04"/><polygon class="v" points="289.67 146.63 293.22 149.65 295.44 145.33 289.67 146.63"/><polygon class="am" points="264.89 123.92 258.76 149.19 248.71 138.52 244.65 127.18 264.89 123.92"/><polygon class="al" points="244.65 127.18 225.99 130.18 221.99 163.64 219.12 172.85 220.1 179.41 239.3 167.51 258.76 149.19 244.65 127.18"/><polygon class="am" points="258.76 149.19 269.29 167 262.57 184.83 253.73 194.95 249.68 206.7 242.45 215.21 228.84 198.21 220.1 179.41 258.76 149.19"/><polygon class="al" points="220.1 179.41 209.66 185.21 194.27 199.19 213.52 205.59 230.05 213.75 242.45 215.21 220.1 179.41"/><polygon class="al" points="269.29 167 273.21 173.63 283.87 189.96 278.17 193.2 268.55 195.46 253.73 194.95 260.23 178.34 269.29 167"/><polygon class="ak" points="253.73 194.95 261.54 214.58 260.4 231.9 245.02 222.45 242.45 215.21 253.73 194.95"/><polygon class="q" points="286.6 254.42 290.62 270.47 273.21 292.53 238.37 289.51 238.37 258.43 264.32 221.29 286.6 254.42"/><polygon class="p" points="242.81 239.7 285.49 244.17 238.37 258.43 242.81 239.7"/><polygon class="u" points="238.37 289.51 238.94 321.35 265.98 321.84 301.39 308.96 271.63 293.49 238.37 289.51"/><polygon class="u" points="294.05 202.67 312.95 213.42 308.83 223.87 305.1 233.47 287.5 213.61 294.05 202.67"/><polygon class="am" points="260.4 231.9 231.36 223.12 213.52 205.59 242.45 215.21 260.4 231.9"/><polygon class="an" points="194.27 199.19 221.99 163.64 220.1 179.41 194.27 199.19"/><polygon class="q" points="242.45 215.21 240.03 224.62 236.96 228.82 224.44 234.67 230.75 205.46 242.45 215.21"/><polygon class="p" points="238.37 289.51 290.62 270.47 301.39 308.96 238.37 289.51"/><polygon class="p" points="283.87 189.96 294.05 202.67 282.97 221.2 268.55 195.46 283.87 189.96"/><polygon class="af" points="230.75 205.46 235.21 181.23 250.3 174.84 270.17 183.04 279.25 201.61 281.3 207.64 286.19 215.81 293.69 228.9 292.2 249.42 271.5 263.06 254.58 253.37 240.03 224.62 236.24 216.8 235.21 211.65 230.75 205.46"/><polygon class="u" points="270.17 265.15 294.05 253.15 293.69 245.11 280.54 237.26 250.76 246.76 253.73 252.89 270.17 265.15"/><polygon class="r" points="286.19 215.81 279.11 201.67 230.75 205.46 236.24 216.8 286.19 215.81"/><polygon class="u" points="250.3 173.63 235.21 181.23 270.17 183.04 250.3 173.63"/><polygon class="y" points="280.93 229.87 286.6 224.62 293.69 228.9 286.83 230.75 280.93 229.87"/><polygon class="w" points="233.08 192.79 260.23 178.34 272 202.23 244.69 216.8 233.08 192.79"/><polygon class="y" points="242.09 198.02 247.14 192.37 251.51 190.19 258.52 189.12 254.62 196.41 250.51 198.54 242.09 198.02"/><polygon class="aa" points="247.14 192.37 250.51 198.54 254.62 196.41 251.51 190.19 247.14 192.37"/><polygon class="t" points="242.09 198.02 244.75 192.32 247.14 192.37 242.09 198.02"/><polygon class="t" points="251.51 190.19 252.74 188.32 258.52 189.12 251.51 190.19"/><path class="ar" d="M247.87,198.08a1.85,1.85,0,1,1-1.85-1.85A1.85,1.85,0,0,1,247.87,198.08Z"/><path class="ar" d="M258.8,192.21a1.85,1.85,0,1,1-1.85-1.85A1.85,1.85,0,0,1,258.8,192.21Z"/><polygon class="d" points="250.51 198.54 253.78 199.52 254.62 196.41 250.51 198.54"/><polygon class="u" points="272 202.23 262.4 216.28 244.69 216.8 272 202.23"/><polygon class="al" points="256.74 196.77 254.41 200.69 249.89 200.19 249.26 205.86 257.55 206.97 261.64 199.68 256.74 196.77"/><path class="af" d="M257.28,202.66a1.68,1.68,0,1,1-2.26-.75A1.69,1.69,0,0,1,257.28,202.66Z"/><polygon class="y" points="238.94 321.35 253.01 317.18 265.98 321.84 251.35 326.74 238.94 321.35"/><polygon class="u" points="265.98 321.84 259.37 330.2 243.9 330.2 238.94 321.35 251.37 325.94 265.98 321.84"/><polygon class="w" points="280.93 229.87 273.71 240.76 293.69 245.11 294.39 240.84 293.69 228.9 280.93 229.87"/><polygon class="y" points="293.69 228.9 293.69 245.11 297.76 241.56 300.87 231.9 293.69 228.9"/><polygon class="w" points="322.56 233.47 352.7 224.62 360.96 254.42 345.88 260.11 337.36 267.68 322.7 263.06 322.56 233.47"/><polygon class="y" points="330.3 239.7 350.7 232.53 347.76 244.13 342.16 246 330.3 239.7"/><polygon class="y" points="337.36 270.49 345.88 260.11 332.83 264.13 322.56 233.47 321.23 265.15 337.36 270.49"/><polygon class="v" points="345.88 260.11 329.34 265.15 337.36 270.49 345.88 260.11"/><polygon class="aa" points="338.32 236.88 342.16 246 347.76 244.13 344.63 234.67 338.32 236.88"/><polygon class="v" points="342.16 246 345.88 247.47 347.76 244.13 342.16 246"/><path class="ar" d="M337.36,242.23a1.91,1.91,0,1,1-1.91-1.9A1.91,1.91,0,0,1,337.36,242.23Z"/><path class="ar" d="M351.53,237.33a1.9,1.9,0,1,1-1.9-1.9A1.9,1.9,0,0,1,351.53,237.33Z"/><polygon class="ab" points="330.3 239.7 336.43 234.67 338.32 236.88 330.3 239.7"/><polygon class="ab" points="344.63 234.67 344.96 231.9 350.7 232.53 344.63 234.67"/><polygon class="v" points="340.5 251.6 350.7 248.09 350.7 249.31 341.1 253.06 340.5 251.6"/><polygon class="w" points="312.95 213.42 330.3 215.49 308.54 224.62 312.95 213.42"/><polygon class="y" points="330.3 215.49 329.25 221.39 320.79 227.29 308.54 224.62 330.3 215.49"/><polygon class="p" points="284.95 157.58 293.3 152.65 301.82 154.21 293.94 156.65 284.95 157.58"/><polygon class="u" points="284.95 157.58 295.18 161.58 301.82 154.21 293.94 156.65 284.95 157.58"/><polygon class="as" points="288.03 157.26 298.89 155.11 294.54 159.05 288.03 157.26"/><polygon class="al" points="321.23 272.17 315.9 319.2 332.79 295.68 340.5 278.31 321.23 272.17"/><polygon class="al" points="350.7 267.6 340.5 278.31 347.67 292 363.19 311.55 350.7 267.6"/><polygon class="am" points="340.5 278.31 315.9 319.2 363.19 311.55 340.5 278.31"/><polygon class="y" points="233.08 192.79 250.3 213.81 244.69 216.8 233.08 192.79"/><polygon class="y" points="260.23 178.34 267.19 204.79 272 202.23 260.23 178.34"/><polygon class="t" points="224.44 234.67 240.03 224.62 280.93 229.87 279.81 260.11 224.44 234.67"/><path class="ao" d="M285.1,134.89a2.64,2.64,0,1,1-2.92-2.32A2.64,2.64,0,0,1,285.1,134.89Z"/><path class="ao" d="M300.3,131.94a2.64,2.64,0,1,1-2.92-2.33A2.64,2.64,0,0,1,300.3,131.94Z"/><polygon class="k" points="376.51 323.73 451.09 341.08 562.82 327.47 476.43 299.1 376.51 323.73"/><polygon class="al" points="483.36 296.36 407.89 318.13 456.16 332.03 532.16 317.63 483.36 296.36"/><polygon class="ak" points="400.16 322.4 483.36 296.36 483.36 290.57 481.76 285.45 448.52 294.66 401.5 311.55 402.3 317.63 400.16 322.4"/><polygon class="am" points="401.5 311.55 403.9 305.13 402.3 298.75 483.36 272.89 483.36 280.62 481.76 285.45 401.5 311.55"/><polygon class="an" points="402.3 298.75 451.09 317.33 453.31 322.4 451.09 328.08 427.41 322.4 401.5 311.55 402.3 298.75"/><polygon class="al" points="401.5 311.55 451.09 328.08 452.61 335.24 451.09 341.08 400.16 322.4 401.5 311.55"/><polygon class="al" points="483.36 272.89 481.76 285.45 505.76 300.18 537.23 313.86 537.93 305.13 541.76 298.75 483.36 272.89"/><polygon class="an" points="481.76 285.45 483.36 296.36 533.76 324.8 533.67 319.2 537.23 313.86 481.76 285.45"/><polygon class="am" points="451.09 317.33 541.76 298.75 537.23 313.86 495.09 322.4 451.09 328.08 451.09 317.33"/><polygon class="ak" points="451.09 341.08 533.76 324.8 537.23 313.86 451.09 328.08 451.09 341.08"/></svg>